<svg version="1.1" id="Layer_1" xmlns="http://www.w3.org/2000/svg" xmlns:xlink="http://www.w3.org/1999/xlink" x="0px" y="0px"
	 width="100%" viewBox="0 0 497 135" enable-background="new 0 0 497 135" xml:space="preserve">
<path fill="#F93232" opacity="1.000000" stroke="none" 
	d="
M152.708221,1.217134 
	C158.688034,1.000000 164.376083,1.000000 170.532059,1.000000 
	C178.363327,2.987349 185.498947,5.234530 191.603531,10.291035 
	C195.910049,13.858184 199.083237,18.289507 202.917938,22.705788 
	C203.309326,26.492384 204.964264,29.385740 206.402649,32.368378 
	C213.222488,46.509933 213.220352,61.546101 211.837936,76.656723 
	C210.879501,87.132668 208.408661,97.245361 201.887314,106.352676 
	C201.603073,107.238556 201.468552,107.746902 201.200958,108.608620 
	C200.517868,110.062325 199.653290,110.932381 198.742401,112.208527 
	C196.144104,114.409058 194.173889,116.787682 191.336655,118.694916 
	C186.322144,120.142448 182.655396,123.367676 178.143600,125.759216 
	C177.632553,126.064713 177.413055,126.166290 176.832886,126.342018 
	C174.239151,126.159332 172.575516,127.237686 170.695404,128.852478 
	C162.037247,130.828079 153.748489,130.440521 145.049637,129.122864 
	C136.978119,125.824928 130.021667,121.378975 123.014961,116.298553 
	C121.162643,114.648392 120.272560,112.565964 118.023926,111.291420 
	C116.668724,109.447983 115.441948,107.971611 113.598793,106.535645 
	C106.321625,97.452232 103.615173,86.962036 102.911812,76.156998 
	C102.280273,66.455177 101.995010,56.607346 103.675781,46.912975 
	C106.377441,31.330347 113.054047,17.975317 126.171600,7.902406 
	C126.662186,7.463542 126.856682,7.288797 127.341324,6.858221 
	C127.826500,6.438450 128.021530,6.274511 128.518127,5.880735 
	C129.239090,5.383014 129.678558,5.154317 130.467194,4.820907 
	C131.010559,4.583222 131.229507,4.498631 131.783173,4.329637 
	C133.821548,4.149818 135.443344,3.772070 137.217819,2.731366 
	C137.748474,2.576667 137.970276,2.546391 138.529266,2.494801 
	C139.322388,2.441773 139.770752,2.364646 140.553070,2.169313 
	C141.127853,2.067815 141.362381,2.046741 141.952759,2.016449 
	C145.696152,2.138235 149.025940,1.250833 152.708221,1.217134 
z"/>
<path fill="#020101" opacity="1.000000" stroke="none" 
	d="
M129.189850,8.831760 
	C115.673050,18.134228 108.605827,31.270357 106.304779,46.821377 
	C103.308975,67.067818 103.666023,87.053528 115.146042,105.598602 
	C115.074310,106.874901 114.337135,107.493790 113.283539,108.428894 
	C103.310394,110.041862 93.707756,109.522034 83.657005,108.914291 
	C82.314568,108.633949 81.416130,108.478539 80.057144,108.333237 
	C79.299942,108.290985 78.995911,108.283211 78.234085,108.268539 
	C64.939720,105.901573 51.962860,106.632133 39.024048,106.475174 
	C33.938690,106.413483 32.964108,105.485069 32.703041,100.296417 
	C32.377251,93.821434 32.574638,87.335121 32.567738,80.853851 
	C32.547035,61.408257 32.475838,41.961918 32.623291,22.517525 
	C32.658924,17.819056 31.562439,14.018951 27.176575,11.107760 
	C26.359705,10.549406 25.941504,10.191019 25.373829,9.439450 
	C24.776083,8.265115 24.511362,7.339785 23.449820,6.513318 
	C19.636709,4.759801 15.919440,5.663364 12.297113,5.434451 
	C9.164665,5.236495 5.949794,5.840813 2.593415,4.234914 
	C2.024309,3.877706 1.810944,3.712253 1.298790,3.273400 
	C1.411557,2.373613 0.030409,0.888648 1.991285,0.989129 
	C3.151300,1.048571 4.316850,1.000000 5.479911,1.000000 
	C50.340836,1.000000 95.201759,1.000000 140.531342,1.000000 
	C141.378006,1.413208 141.553528,1.899499 141.380890,2.832433 
	C141.235245,3.205989 141.200623,3.249712 141.172791,3.247860 
	C140.600235,3.378896 140.052048,3.496135 139.302216,3.803299 
	C139.101898,3.999379 139.023911,4.055196 138.976227,4.060327 
	C136.754028,4.714183 134.874344,6.100705 132.414963,6.845568 
	C132.197266,7.109759 132.140091,7.171899 132.099457,7.183401 
	C131.550461,7.431819 130.985397,7.485360 130.370041,7.948705 
	C130.273865,8.210112 130.235565,8.267227 130.201996,8.274705 
	C129.818954,8.238028 129.541168,8.358789 129.189850,8.831760 
z"/>
<path fill="#F93232" opacity="1.000000" stroke="none" 
	d="
M284.683411,1.222641 
	C289.024536,1.000000 293.049103,1.000000 297.536804,1.000000 
	C300.367981,1.911784 302.847137,2.010509 305.680878,2.008142 
	C306.247467,2.023102 306.473907,2.033464 307.036560,2.093162 
	C308.678558,2.620934 310.091522,2.368454 311.747284,2.843552 
	C321.055206,6.147371 327.023407,13.193469 333.719269,19.917063 
	C334.329773,20.579470 334.667480,20.976446 335.240601,21.710064 
	C335.819794,22.492222 336.068970,22.989433 336.324036,23.946360 
	C336.190582,26.431612 336.698517,28.322048 337.802704,30.061405 
	C341.255371,35.500057 343.277191,41.516758 343.724243,47.851112 
	C344.799988,63.093121 345.873016,78.377312 340.975006,93.288055 
	C339.406281,98.063766 337.232147,102.491776 334.025970,106.861649 
	C328.425873,115.867867 321.139069,122.212517 311.294159,125.359482 
	C309.236359,126.017258 307.326721,126.938568 305.257874,128.471237 
	C296.411530,130.639664 287.911743,131.041611 278.971313,129.061340 
	C275.683990,125.585930 270.968079,126.751266 267.454620,124.310440 
	C262.422882,120.814850 256.927399,118.052521 253.198456,112.930344 
	C252.321655,111.725914 251.035339,110.868355 249.195099,110.274307 
	C248.090729,109.819397 247.546387,109.239685 246.735916,108.375549 
	C246.213715,107.306656 245.882217,106.582787 245.272766,105.549301 
	C239.802353,98.029312 237.423416,89.728401 236.066696,81.133728 
	C234.214294,69.399155 234.201324,57.659054 236.388794,45.907127 
	C239.738770,27.909740 248.524109,13.711972 264.908630,4.157808 
	C265.477783,3.784650 265.707031,3.638269 266.288879,3.292263 
	C266.891907,2.999027 267.142426,2.905418 267.778870,2.714919 
	C273.603027,2.746405 278.930023,1.337103 284.683411,1.222641 
z"/>
<path fill="#010101" opacity="1.000000" stroke="none" 
	d="
M332.122375,22.200542 
	C326.526245,14.770967 319.877136,9.002787 311.220154,5.127007 
	C309.806915,4.314748 308.472229,4.188868 307.120667,3.332152 
	C306.805756,3.264735 306.994812,3.001213 306.898987,3.133057 
	C306.536041,2.221998 305.099335,2.647408 304.894043,1.329910 
	C332.354218,1.000000 359.708466,1.000000 387.531342,1.000000 
	C389.631500,2.559469 389.486389,4.603127 389.487579,6.587306 
	C389.506195,38.111877 389.502106,69.636452 389.501129,101.161026 
	C389.501068,103.181854 389.312134,105.135963 388.036926,107.355469 
	C386.662994,109.001633 385.145355,109.197708 383.657196,109.221992 
	C371.040894,109.427971 358.421570,109.884300 345.351227,108.796959 
	C344.620026,108.458885 344.350616,108.279793 343.741760,107.756279 
	C342.892456,106.578865 342.695923,105.673897 342.880493,104.275375 
	C344.495514,100.680038 345.266296,97.295860 346.050415,93.896042 
	C346.484100,92.015640 346.686798,89.897400 348.986023,88.538696 
	C351.155884,88.027565 352.317230,89.398598 354.107819,90.161865 
	C355.508667,91.102142 356.355988,92.314636 357.815033,92.291794 
	C365.207642,92.176109 372.490662,94.016350 379.906830,93.497108 
	C381.278503,93.401070 382.661224,93.383835 383.188110,91.839523 
	C383.856110,89.881851 382.505859,89.184349 380.639587,88.504112 
	C377.968658,86.381172 375.158569,86.498306 372.370483,86.415634 
	C369.283661,86.324112 366.144653,86.729385 362.823181,85.344818 
	C361.928375,84.454903 361.742889,83.655029 361.492004,82.856071 
	C358.944031,74.740791 360.504059,72.527451 368.772461,72.510452 
	C371.432617,72.504982 374.102509,72.651047 376.750916,72.441635 
	C379.425415,72.230164 380.909119,71.075119 379.037598,67.846222 
	C378.160004,64.956635 376.332092,64.469818 373.981964,64.502098 
	C370.324554,64.552330 366.634186,64.973930 362.682861,63.718590 
	C361.064392,61.409504 360.274231,59.245766 360.862915,56.368866 
	C362.954102,52.677834 366.497559,53.343128 369.853394,52.525703 
	C370.787415,52.510609 371.311829,52.511799 372.204315,52.533737 
	C374.650635,52.899487 376.680298,53.504604 378.771027,53.778393 
	C380.131287,53.956520 381.813629,54.899715 382.616058,53.009937 
	C383.457642,51.028038 382.574585,49.564369 380.344238,48.514740 
	C378.207611,46.530949 375.881897,46.452148 373.533356,46.439991 
	C369.052307,46.416798 364.570923,46.389992 360.090393,46.441952 
	C353.730835,46.515701 353.168762,47.041477 352.279053,53.402668 
	C352.141388,54.387081 352.047394,55.384197 351.270172,56.554733 
	C347.404083,58.462238 347.134766,55.588017 346.604279,53.401070 
	C344.113586,43.133087 340.447723,33.380516 334.034241,24.479458 
	C333.524658,24.041273 333.347198,23.771868 333.003479,23.325521 
	C332.787109,22.801462 332.618042,22.528111 332.122375,22.200542 
z"/>
<path fill="#030101" opacity="1.000000" stroke="none" 
	d="
M267.313904,5.695903 
	C252.154236,13.270080 243.359131,25.689646 239.949432,41.459373 
	C235.256821,63.162594 235.407669,84.667297 247.292419,105.005814 
	C247.302155,106.011177 247.066650,106.702904 246.581772,107.690460 
	C245.973907,108.350998 245.540253,108.626205 244.671524,108.919113 
	C243.482010,109.167450 242.668686,109.240524 241.421967,109.324104 
	C231.575394,109.185150 222.136826,110.132629 212.344025,108.531059 
	C210.600739,107.095200 209.807526,105.429810 210.395111,103.830284 
	C212.103592,99.179550 212.329727,94.001389 215.727203,89.589943 
	C217.637009,88.840889 219.017502,89.588127 220.861496,89.915977 
	C225.667160,90.920189 227.187881,90.203720 227.320877,86.278206 
	C227.678818,75.714401 227.614288,65.140266 227.349625,54.570801 
	C227.310562,53.011711 226.643753,51.708755 225.391769,50.281281 
	C224.332794,46.253372 221.167343,46.509720 218.089828,45.943520 
	C214.756073,45.612919 213.883469,42.533794 211.323334,41.116905 
	C210.801788,40.813152 210.610474,40.662945 210.194061,40.227455 
	C209.696686,39.548351 209.436783,39.146568 209.028687,38.423599 
	C206.907455,32.957542 203.941895,28.324736 200.966644,23.489292 
	C193.011612,13.747530 184.264435,5.643695 171.694946,2.878361 
	C171.163345,2.761408 170.772278,2.005638 170.657867,1.273734 
	C204.687561,1.000000 238.375122,1.000000 272.531342,1.000000 
	C273.795258,4.833227 270.588562,3.909074 268.530518,4.919548 
	C268.328888,5.248958 268.265656,5.327672 268.215607,5.334291 
	C267.957153,5.384240 267.748779,5.427570 267.313904,5.695903 
z"/>
<path fill="#010100" opacity="1.000000" stroke="none" 
	d="
M488.758209,1.241807 
	C491.990448,1.000000 496.111237,-0.162856 497.648895,1.331751 
	C499.143646,2.784676 497.998657,6.961833 497.998779,9.942751 
	C498.000641,49.649395 498.000000,89.356041 498.000000,129.531342 
	C497.670929,130.331161 497.319580,130.636749 496.614258,131.055237 
	C496.038940,131.219528 495.796448,131.246719 495.181854,131.264160 
	C494.566589,131.193924 494.323425,131.133469 493.452423,130.670715 
	C492.661682,130.083862 492.498779,129.899323 492.135437,129.409424 
	C487.493927,118.760155 480.038544,110.311752 474.124786,100.893761 
	C472.614929,98.489212 472.088959,95.149193 468.425690,93.999725 
	C468.018219,93.576256 467.888336,93.377220 467.656189,92.837517 
	C463.416779,85.060555 460.118805,77.062553 453.072449,71.195839 
	C452.559265,70.876770 452.375366,70.714958 451.990967,70.243607 
	C451.404358,69.001793 451.570007,68.016037 451.507996,66.695908 
	C451.237152,63.808773 452.507996,61.947487 453.996704,60.060997 
	C464.794708,46.377808 476.097870,33.102436 486.819763,19.358416 
	C487.432465,18.573042 488.125702,17.849545 488.672272,17.012009 
	C490.028229,14.934234 491.047882,13.071980 487.129425,12.816731 
	C485.219421,12.692316 483.705841,11.610833 482.764282,9.425695 
	C482.420471,7.143867 482.973175,5.570253 484.971069,4.293485 
	C486.349976,3.218267 487.567596,2.519261 488.758209,1.241807 
z"/>
<path fill="#030202" opacity="1.000000" stroke="none" 
	d="
M467.243774,135.723846 
	C444.312439,136.000000 421.624878,136.000000 398.468658,136.000000 
	C397.625732,135.548370 397.429443,135.029984 397.523804,134.039078 
	C398.895905,131.614929 400.998413,131.776749 402.947296,131.667953 
	C406.414001,131.474411 409.888794,131.612732 413.359497,131.540787 
	C416.323761,131.479355 418.945892,130.804764 420.362152,127.380249 
	C423.185089,120.835800 423.777924,114.622192 420.730560,107.956490 
	C417.648041,97.120735 425.145386,92.133751 431.996796,86.516884 
	C432.681061,86.458580 432.956268,86.478310 433.641724,86.528542 
	C434.323090,86.592216 434.594208,86.625404 435.255676,86.770065 
	C435.878998,87.011192 436.111969,87.140846 436.634338,87.537384 
	C437.257507,88.189026 437.585754,88.578407 438.148743,89.247696 
	C445.788818,99.729996 452.027557,110.690506 459.154938,121.481857 
	C459.511139,121.927368 459.660553,122.099594 460.054321,122.513321 
	C460.472351,122.907532 460.646057,123.060226 461.077087,123.450981 
	C463.266388,127.142021 467.131256,129.255753 468.077637,133.766174 
	C467.996216,134.618515 467.789581,135.054993 467.243774,135.723846 
z"/>
<path fill="#0C0303" opacity="1.000000" stroke="none" 
	d="
M387.256287,106.883202 
	C388.063812,103.776917 387.974609,100.949348 387.974365,98.120590 
	C387.971649,66.059494 387.984100,33.998394 387.996246,1.468649 
	C411.020905,1.000000 434.041779,1.000000 457.531342,1.000000 
	C458.430664,1.575847 458.554077,2.222703 458.389801,3.265644 
	C458.304504,3.839994 458.273865,4.072098 458.125305,4.637543 
	C457.835510,5.417535 457.615173,5.839257 457.138031,6.531605 
	C447.548401,19.397152 437.676300,31.586527 428.189606,44.073204 
	C426.684662,46.054050 425.244995,48.180630 421.859406,47.472496 
	C419.332611,45.596619 419.708527,43.109188 419.643677,40.841145 
	C419.462677,34.512310 419.486053,28.176947 419.600189,21.848122 
	C419.673981,17.755774 419.021240,14.264937 414.953918,12.167857 
	C413.148254,11.236899 412.177643,9.344783 410.725189,7.420059 
	C405.576935,4.360487 400.417053,5.306288 395.365112,6.010121 
	C392.966644,6.344274 391.940460,8.432403 391.631042,10.753931 
	C391.366699,12.737296 391.445984,14.733991 391.444946,16.725660 
	C391.430695,43.634212 391.474884,70.542839 391.398926,97.451233 
	C391.390167,100.550293 391.962860,103.797752 389.727509,106.957214 
	C388.747864,107.497009 388.130951,107.507751 387.256287,106.883202 
z"/>
<path fill="#030508" opacity="1.000000" stroke="none" 
	d="
M285.229187,135.662323 
	C249.979111,136.000000 214.958206,136.000000 179.468658,136.000000 
	C177.243362,131.991821 180.636322,131.551086 182.916931,130.740753 
	C185.875137,129.689667 189.045532,129.204056 191.525711,126.331879 
	C192.037354,125.839516 192.263519,125.658928 192.893936,125.298599 
	C194.193726,124.941864 195.090363,124.795601 196.466125,125.071327 
	C215.958511,123.979538 235.004501,124.820099 254.039581,124.553726 
	C257.692627,124.502602 261.320068,124.694847 265.375732,125.365959 
	C268.316772,125.010544 270.402100,126.209259 272.921234,127.318954 
	C275.370148,129.929413 278.538025,129.834274 281.163727,130.989166 
	C283.134338,131.855896 285.835144,132.095383 285.229187,135.662323 
z"/>
<path fill="#070506" opacity="1.000000" stroke="none" 
	d="
M153.230850,135.659607 
	C104.309731,136.000000 55.618912,135.895386 6.930002,136.152222 
	C1.721339,136.179688 -0.052600,134.989517 0.972040,129.958664 
	C1.167027,129.001297 1.000000,127.970207 1.000000,126.486565 
	C1.233746,125.789879 1.467492,125.579765 2.083116,125.093018 
	C4.217836,123.895164 6.035571,123.719254 8.312453,124.581528 
	C11.570617,130.411728 16.217451,131.781006 22.286751,131.677734 
	C41.042175,131.358627 59.806358,131.557266 78.567093,131.569611 
	C82.614143,131.572266 86.205925,130.893280 88.444176,126.433228 
	C90.364845,125.113449 92.136131,124.695526 93.971161,124.695961 
	C106.672005,124.699005 119.384590,123.943237 132.535706,125.215286 
	C134.540924,124.947945 136.047897,124.950287 137.873169,125.860664 
	C141.765564,128.323547 145.538940,129.918289 149.607681,130.974899 
	C151.649384,131.505081 153.880020,132.371765 153.230850,135.659607 
z"/>
<path fill="#050609" opacity="1.000000" stroke="none" 
	d="
M398.126404,133.908661 
	C397.995270,134.747818 397.999878,135.105576 398.002258,135.731659 
	C368.645782,136.000000 339.291534,136.000000 309.468658,136.000000 
	C308.145142,132.757843 310.639282,132.314133 312.726074,131.325577 
	C316.635254,129.473663 321.642242,129.891342 324.803345,125.490570 
	C326.339783,124.914948 327.516022,124.674515 329.207275,124.929352 
	C346.078156,124.185738 362.494446,124.687172 378.905090,124.570091 
	C381.888519,124.548805 384.882782,124.463448 388.326385,125.106567 
	C390.142181,125.298264 391.474121,125.370758 392.799988,125.501167 
	C398.297668,126.041878 399.567017,127.896713 398.126404,133.908661 
z"/>
<path fill="#701F17" opacity="1.000000" stroke="none" 
	d="
M467.366180,134.357620 
	C464.150726,131.190445 462.862885,126.801727 458.375793,125.116730 
	C459.411743,123.003387 461.194611,123.558647 462.800171,123.569267 
	C468.450714,123.606651 474.103699,123.700165 479.750732,123.548904 
	C483.469635,123.449280 483.938995,122.560989 481.914642,119.357719 
	C477.566650,112.477600 473.181793,105.619469 468.706909,98.819527 
	C467.449677,96.909004 465.861176,94.883385 468.756714,92.861725 
	C471.523865,93.078262 472.304504,95.195511 473.337280,96.752014 
	C480.115540,106.967743 486.772980,117.263657 493.682312,127.799316 
	C494.209961,128.189117 494.462830,128.391022 494.765045,128.889679 
	C494.876617,129.108429 494.991302,129.041214 494.938385,129.082703 
	C495.088470,129.247574 495.291473,129.370987 495.665466,129.807068 
	C495.836456,130.119751 495.764587,130.191269 495.781525,130.239044 
	C496.555237,130.511520 497.042145,131.104324 497.798279,131.802536 
	C498.000000,132.444443 498.000000,132.888901 498.000000,133.666672 
	C496.589142,135.194778 494.872894,135.021423 493.227417,134.982529 
	C484.749939,134.782227 476.258759,135.492233 467.366180,134.357620 
z"/>
<path fill="#70221E" opacity="1.000000" stroke="none" 
	d="
M325.074585,127.061279 
	C322.491791,131.174988 318.152740,131.876221 314.281738,133.430298 
	C312.642487,134.088409 310.700378,133.978073 309.176117,135.689240 
	C309.000000,136.000000 308.500000,136.000000 308.250000,136.000000 
	C307.270172,135.268799 306.371033,135.541733 305.255707,135.790192 
	C298.645599,136.000000 292.291199,136.000000 285.468384,136.000000 
	C284.531647,133.363739 282.072296,133.868439 280.422516,133.185913 
	C277.889221,132.137848 275.154358,131.521942 273.046326,129.049240 
	C273.417023,125.984871 275.493744,126.527756 277.729980,126.803726 
	C286.834534,127.860252 295.561066,128.282928 304.631134,126.354095 
	C309.732758,125.869743 314.301147,124.254723 319.106049,124.660896 
	C321.190765,124.837120 323.437439,124.576927 325.074585,127.061279 
z"/>
<path fill="#6F211E" opacity="1.000000" stroke="none" 
	d="
M153.468658,136.000000 
	C152.778503,134.030853 151.057541,133.821732 149.719116,133.545563 
	C145.577011,132.690979 141.999786,130.683136 138.228729,128.272858 
	C139.360336,125.916481 141.373932,125.918739 143.933762,126.576080 
	C152.811020,127.693848 161.282867,128.241943 170.185150,126.885483 
	C172.557098,125.914230 174.784149,126.948479 177.137451,125.961899 
	C179.391357,125.294128 181.326111,125.622452 183.632462,125.445206 
	C186.676712,126.374634 189.606903,125.964104 192.411972,127.638168 
	C188.796677,131.615875 183.159088,132.042938 179.017120,135.643005 
	C170.645767,136.000000 162.291534,136.000000 153.468658,136.000000 
z"/>
<path fill="#860700" opacity="1.000000" stroke="none" 
	d="
M2.277125,125.289993 
	C1.860109,125.566757 1.434179,125.791565 1.217089,125.895782 
	C1.000000,85.312439 1.000000,44.624878 1.000000,3.468657 
	C1.000000,3.000000 1.454465,3.046181 1.666435,3.131251 
	C5.066825,5.412220 4.355056,8.829072 4.377081,11.867745 
	C4.514275,30.795685 4.438569,49.724583 4.439769,68.653152 
	C4.440789,84.759033 4.511074,100.865265 4.381799,116.970505 
	C4.359777,119.714066 4.915494,122.685669 2.277125,125.289993 
z"/>
<path fill="#290E02" opacity="1.000000" stroke="none" 
	d="
M466.956604,134.426727 
	C476.983490,134.030212 487.026855,133.947952 497.535095,133.932846 
	C498.608765,136.401001 496.906372,135.997101 495.560547,135.997726 
	C486.352814,136.002060 477.145050,136.000000 467.468658,136.000000 
	C466.991028,135.580338 466.982025,135.160660 466.956604,134.426727 
z"/>
<path fill="#650B07" opacity="1.000000" stroke="none" 
	d="
M268.710419,5.246630 
	C269.493713,3.544538 272.208252,3.877334 273.003174,1.345421 
	C276.692902,1.000000 280.385834,1.000000 284.539368,0.999999 
	C279.697327,2.414766 274.394623,3.829534 268.710419,5.246630 
z"/>
<path fill="#4F130B" opacity="1.000000" stroke="none" 
	d="
M456.653351,3.625463 
	C456.821533,2.676402 457.284424,2.093623 457.873657,1.255422 
	C460.700012,1.000000 463.400024,1.000000 466.550018,1.000000 
	C467.783813,1.699065 469.620026,1.439002 468.839966,3.688224 
	C464.684387,5.882320 460.810089,5.976298 456.653351,3.625463 
z"/>
<path fill="#4F130B" opacity="1.000000" stroke="none" 
	d="
M488.555847,1.000000 
	C488.540466,2.218171 488.717072,3.713143 487.152618,4.734833 
	C484.441772,3.914834 481.686432,6.252228 479.136658,3.827439 
	C478.375671,2.119550 479.130646,1.615322 480.677460,1.220813 
	C483.370575,1.000000 485.741119,1.000000 488.555847,1.000000 
z"/>
<path fill="#6E0F0B" opacity="1.000000" stroke="none" 
	d="
M141.647797,3.237952 
	C141.255173,2.702885 141.275101,2.199780 141.147522,1.348338 
	C144.692902,1.000000 148.385818,1.000000 152.539368,0.999999 
	C149.353439,1.756638 145.706894,2.513277 141.647797,3.237952 
z"/>
<path fill="#5C0806" opacity="1.000000" stroke="none" 
	d="
M304.562500,1.000001 
	C305.534729,1.567580 306.069458,2.135158 306.703674,2.983818 
	C303.891266,3.285053 301.144745,2.444497 298.194885,1.324021 
	C300.041656,1.000000 302.083344,1.000000 304.562500,1.000001 
z"/>
<path fill="#0C0303" opacity="1.000000" stroke="none" 
	d="
M469.284119,3.060616 
	C468.476837,2.282293 467.871490,1.879938 467.133087,1.238792 
	C469.041656,1.000000 471.083344,1.000000 473.562500,1.000000 
	C474.492035,2.365923 473.638367,3.102253 472.289307,3.935738 
	C470.997131,4.197579 470.192657,4.000818 469.284119,3.060616 
z"/>
<path fill="#0C0303" opacity="1.000000" stroke="none" 
	d="
M480.583344,0.999996 
	C480.440613,1.434318 479.881256,1.868645 479.118652,2.485448 
	C478.484070,3.601814 477.684753,3.727120 476.399780,3.464800 
	C475.638153,2.833683 475.486359,2.309790 475.778442,1.360735 
	C477.388885,1.000000 478.777802,1.000000 480.583344,0.999996 
z"/>
<path fill="#4F130B" opacity="1.000000" stroke="none" 
	d="
M475.666687,1.000000 
	C476.011047,1.372553 476.022125,1.745106 476.061646,2.398995 
	C475.146820,4.031527 473.908966,3.994066 472.236877,3.048368 
	C472.526489,2.273748 473.138519,1.880154 473.875244,1.243280 
	C474.444458,1.000000 474.888885,1.000000 475.666687,1.000000 
z"/>
<path fill="#290E02" opacity="1.000000" stroke="none" 
	d="
M498.000000,131.666672 
	C497.029480,132.159958 496.443207,131.647964 495.905548,130.575256 
	C496.287842,130.220642 496.777252,130.154434 497.633301,130.044113 
	C498.000000,130.444443 498.000000,130.888901 498.000000,131.666672 
z"/>
<path fill="#49160C" opacity="1.000000" stroke="none" 
	d="
M305.375000,136.000000 
	C305.755249,135.172440 306.620361,135.000183 307.804321,135.781311 
	C307.250000,136.000000 306.500000,136.000000 305.375000,136.000000 
z"/>
<path fill="#050101" opacity="1.000000" stroke="none" 
	d="
M183.362885,76.363678 
	C183.238602,77.605766 183.220718,78.513367 183.046753,79.728035 
	C182.275787,80.901642 182.669083,81.997086 182.172180,83.273399 
	C179.537750,102.881546 162.868942,111.953300 145.061310,103.420181 
	C144.754654,102.832573 144.594498,102.549889 144.057999,102.318588 
	C143.809097,102.297775 143.751419,102.255562 143.732819,102.225044 
	C143.713409,101.844589 143.583710,101.556213 143.055817,101.309540 
	C142.806122,101.280312 142.761017,101.243683 142.750549,101.216583 
	C140.604141,97.992317 137.548996,95.152786 138.891632,90.354996 
	C139.335297,89.849037 139.543976,89.681778 140.123322,89.387199 
	C141.707092,89.046837 142.690735,89.828880 143.811768,90.025696 
	C146.690674,90.531113 148.217072,89.317268 148.415802,86.428238 
	C148.584869,83.970612 148.667038,81.490829 148.459625,79.050789 
	C148.087387,74.671440 150.001480,72.965179 154.586929,73.573639 
	C157.864685,73.994537 159.527802,75.837601 160.877945,78.318504 
	C162.600189,81.483185 163.564896,85.145073 166.880219,87.695831 
	C169.103119,89.058708 170.624649,91.648071 173.612610,89.393814 
	C172.358795,83.970818 168.955795,79.762123 166.811310,74.563889 
	C166.454453,72.824631 166.436737,71.410507 166.781128,69.648376 
	C166.940582,69.065948 167.001251,68.831207 167.125671,68.234489 
	C167.280090,67.644394 167.370728,67.416260 167.895905,66.602737 
	C168.483887,65.831284 168.637360,65.645233 169.288071,64.938911 
	C174.086426,60.831848 174.425110,57.795437 170.770081,53.155052 
	C169.315369,48.928722 166.816498,46.340305 162.278564,45.537018 
	C160.970520,45.411427 160.006790,45.356018 158.652557,45.271393 
	C154.264572,44.035133 149.904648,45.101452 145.683334,42.986786 
	C142.696457,37.533863 147.110001,35.305134 149.874634,32.918060 
	C157.722153,26.142254 168.122391,26.104156 176.765747,32.593483 
	C179.177643,34.921509 180.275284,37.491226 181.006226,40.619980 
	C181.725830,41.675816 181.405838,42.601017 181.727570,43.694443 
	C182.042313,44.266911 182.189514,44.563549 182.236084,45.095718 
	C182.286880,46.319538 182.587112,47.287231 182.717133,48.638199 
	C183.078629,49.880852 183.269745,50.787376 183.393860,52.039192 
	C183.719742,54.696671 183.357910,57.032520 183.708252,59.660038 
	C183.957977,62.712734 184.044739,65.456551 183.971115,68.632202 
	C183.129700,71.357948 183.699524,73.713181 183.362885,76.363678 
z"/>
<path fill="#73201B" opacity="1.000000" stroke="none" 
	d="
M177.076889,32.512054 
	C170.129333,30.585093 163.276154,28.804012 155.905594,32.149445 
	C151.286896,34.245827 147.882172,37.240170 145.063889,41.705948 
	C138.736023,48.947193 140.636841,57.378925 140.426498,65.403893 
	C140.214783,73.481712 140.871643,81.572128 140.025635,90.061813 
	C140.156342,94.011841 141.664886,97.169731 142.751083,100.816055 
	C137.085373,98.139618 134.897095,92.509979 133.463226,86.988068 
	C129.504440,71.742508 129.383698,56.260059 133.603836,41.058250 
	C136.365982,31.108444 142.544495,23.906660 153.528397,22.458010 
	C163.156204,21.188210 171.347794,23.726366 177.076889,32.512054 
z"/>
<path fill="#74201A" opacity="1.000000" stroke="none" 
	d="
M211.667618,38.039959 
	C211.667267,38.299366 211.689377,38.700123 211.764832,38.886086 
	C215.624741,44.525375 217.944855,50.584839 219.313904,57.506943 
	C219.505798,66.111794 219.500092,74.262177 219.367599,82.410217 
	C219.328033,84.843575 219.697556,87.470703 217.209686,89.657539 
	C215.396515,95.296799 214.106171,100.759193 211.821564,106.297691 
	C211.678177,107.192169 211.420837,107.622360 210.640778,108.116905 
	C209.793869,108.406174 209.290558,108.507545 208.400314,108.606430 
	C206.270294,108.160072 204.525787,108.184288 202.389709,108.634079 
	C201.188507,108.446510 200.521118,108.046013 199.862946,107.017334 
	C212.429428,83.487694 212.922531,59.337399 205.362289,34.620647 
	C204.253799,30.996670 202.250961,27.646257 200.642975,23.814165 
	C205.337372,26.740784 207.754456,31.763680 210.729797,36.789253 
	C211.222733,37.255413 211.467499,37.495380 211.667618,38.039959 
z"/>
<path fill="#6A3F77" opacity="1.000000" stroke="none" 
	d="
M199.518524,106.779572 
	C200.539993,106.731857 201.366577,106.818810 202.606812,106.936859 
	C204.467773,107.007584 205.915100,107.015610 207.672058,106.950485 
	C208.496735,106.938881 209.011780,106.946037 209.904510,107.035767 
	C211.989731,108.800560 211.858383,110.730042 210.773697,112.583992 
	C207.315720,118.494431 203.596298,124.176880 196.281097,126.714066 
	C195.352203,127.065453 194.730972,127.182549 193.793549,127.278091 
	C190.537247,127.477051 187.613464,127.034508 184.336792,127.061798 
	C181.947083,127.106926 179.899216,127.130035 177.412292,127.150093 
	C176.613617,126.692688 176.464386,126.177399 176.708160,125.227966 
	C176.890823,124.854752 176.975235,124.944847 176.921906,124.913803 
	C181.402908,123.027382 185.771042,120.885429 189.720322,117.341110 
	C192.020111,115.113380 194.063187,113.123093 196.399536,111.000786 
	C197.826111,110.377281 197.843903,109.086441 198.655807,107.977859 
	C198.887497,107.370750 199.072983,107.118530 199.518524,106.779572 
z"/>
<path fill="#7A3863" opacity="1.000000" stroke="none" 
	d="
M144.107437,126.504471 
	C142.480469,127.134483 140.620163,127.505081 138.370026,127.958130 
	C137.024170,127.763390 136.068130,127.486191 134.829773,127.112747 
	C130.724609,125.699318 127.464317,123.472527 124.425499,120.854668 
	C122.988297,119.616539 121.745094,118.344772 122.077606,115.884605 
	C122.342758,115.309189 122.495026,115.102280 123.013062,114.774139 
	C129.429413,119.898071 136.418289,123.484337 144.107437,126.504471 
z"/>
<path fill="#79365A" opacity="1.000000" stroke="none" 
	d="
M189.643814,117.173309 
	C187.195251,121.804291 182.759216,123.890007 177.257111,124.893738 
	C181.015915,122.336151 185.163254,119.789551 189.643814,117.173309 
z"/>
<path fill="#79365A" opacity="1.000000" stroke="none" 
	d="
M176.503403,124.838272 
	C176.913345,125.363609 176.935852,125.872467 176.965790,126.764183 
	C175.099014,128.234634 173.223953,127.789963 170.978119,127.024910 
	C172.011551,125.061531 174.073563,124.967644 176.503403,124.838272 
z"/>
<path fill="#7A3863" opacity="1.000000" stroke="none" 
	d="
M113.706528,107.232918 
	C114.202499,106.610146 114.562737,106.347702 115.125526,105.994186 
	C117.110008,106.443901 117.749184,108.120148 118.682709,109.971130 
	C115.727760,111.553062 114.076965,110.540894 113.706528,107.232918 
z"/>
<path fill="#7A3863" opacity="1.000000" stroke="none" 
	d="
M118.921440,110.097183 
	C120.399513,111.341568 121.728973,112.720261 123.218628,114.375931 
	C123.378830,114.652901 123.087196,114.930962 122.941147,115.069733 
	C119.132065,116.409485 117.953712,114.621620 118.273293,110.891083 
	C118.478554,110.503357 118.772827,110.231499 118.921440,110.097183 
z"/>
<path fill="#6E0F0B" opacity="1.000000" stroke="none" 
	d="
M132.543884,7.089868 
	C133.797577,5.280210 136.002579,4.628180 138.577637,4.039452 
	C136.915863,5.066967 134.903168,6.068472 132.543884,7.089868 
z"/>
<path fill="#060202" opacity="1.000000" stroke="none" 
	d="
M183.940277,59.541176 
	C182.626984,57.761887 182.983536,55.393970 183.251007,52.713554 
	C183.554367,54.627460 183.781860,56.870449 183.940277,59.541176 
z"/>
<path fill="#060202" opacity="1.000000" stroke="none" 
	d="
M183.434570,76.311157 
	C182.961395,74.354637 182.712418,72.012672 183.652390,69.384880 
	C183.744720,71.350739 183.678696,73.637444 183.434570,76.311157 
z"/>
<path fill="#79365A" opacity="1.000000" stroke="none" 
	d="
M198.490051,107.845398 
	C198.798386,108.897804 198.439178,109.932617 197.010056,110.732910 
	C197.199509,109.919144 197.706207,108.969528 198.490051,107.845398 
z"/>
<path fill="#060202" opacity="1.000000" stroke="none" 
	d="
M182.924866,48.591324 
	C182.632172,48.015060 182.376801,47.055801 182.128448,45.713894 
	C182.985901,46.125084 182.889587,47.190979 182.924866,48.591324 
z"/>
<path fill="#060202" opacity="1.000000" stroke="none" 
	d="
M182.343948,83.341682 
	C182.252487,82.659447 182.399490,81.677643 182.718552,80.365479 
	C182.787888,81.037445 182.685150,82.039780 182.343948,83.341682 
z"/>
<path fill="#060202" opacity="1.000000" stroke="none" 
	d="
M181.910324,43.647453 
	C181.612701,43.186932 181.330261,42.403603 181.027924,41.303200 
	C181.313843,41.765633 181.619675,42.545139 181.910324,43.647453 
z"/>
<path fill="#6E0F0B" opacity="1.000000" stroke="none" 
	d="
M130.550537,8.207458 
	C130.683304,7.871233 131.092743,7.532353 131.780518,7.194189 
	C131.648300,7.531538 131.237762,7.868172 130.550537,8.207458 
z"/>
<path fill="#6E0F0B" opacity="1.000000" stroke="none" 
	d="
M139.390747,4.042945 
	C139.589767,3.722398 140.077652,3.445413 140.855255,3.207216 
	C140.656509,3.526171 140.168045,3.806340 139.390747,4.042945 
z"/>
<path fill="#6E0F0B" opacity="1.000000" stroke="none" 
	d="
M129.288208,8.995506 
	C129.147385,8.684813 129.360016,8.450196 129.925491,8.298693 
	C130.090973,8.636492 129.878754,8.866419 129.288208,8.995506 
z"/>
<path fill="#73201B" opacity="1.000000" stroke="none" 
	d="
M143.876053,102.532516 
	C144.163208,102.291031 144.440491,102.433632 144.714157,102.956512 
	C144.430542,103.198875 144.149078,103.058815 143.876053,102.532516 
z"/>
<path fill="#73201B" opacity="1.000000" stroke="none" 
	d="
M142.851227,101.517731 
	C143.164322,101.266594 143.435272,101.413643 143.666595,101.957993 
	C143.356201,102.207008 143.083557,102.060547 142.851227,101.517731 
z"/>
<path fill="#FB3332" opacity="1.000000" stroke="none" 
	d="
M2.289473,125.693420 
	C1.930660,101.578201 2.026020,77.589676 2.063198,53.601070 
	C2.088766,37.103409 2.033615,20.605619 1.946473,3.662104 
	C10.123215,2.472545 18.368246,2.500395 26.888975,3.554081 
	C27.561321,4.670113 27.496208,5.498545 27.337654,6.716227 
	C27.208416,7.503768 27.206167,7.897906 27.206327,8.587645 
	C29.033606,12.364076 29.469706,16.086277 29.463045,19.977453 
	C29.422647,43.576691 29.433956,67.176094 29.443844,90.775436 
	C29.444679,92.769501 29.371830,94.767815 29.526850,96.756454 
	C29.978682,102.552696 33.051525,105.476875 38.788715,105.491341 
	C52.250221,105.525276 65.711853,105.485947 79.650269,105.531799 
	C80.127113,105.553017 80.392868,105.660965 80.511780,105.741150 
	C81.974380,110.229439 82.498108,114.716881 82.580872,119.342819 
	C82.651207,123.273506 81.401764,125.984848 77.315331,127.728546 
	C67.918457,128.922699 58.920876,128.334244 49.937138,128.415222 
	C38.944687,128.514328 27.950369,128.474594 16.956928,128.415588 
	C14.112189,128.400330 11.273494,128.355301 8.388845,126.342979 
	C6.199567,126.027794 4.459201,125.923943 2.289473,125.693420 
z"/>
<path fill="#0B3C7A" opacity="1.000000" stroke="none" 
	d="
M91.201996,61.454697 
	C88.275421,60.781094 87.503166,58.921482 86.971909,56.442772 
	C83.704407,52.089638 79.516525,52.695526 74.958038,53.722130 
	C74.643936,53.884785 74.504425,53.945438 74.428368,53.944794 
	C74.006920,54.132835 73.684608,54.354996 73.180801,54.822403 
	C72.976227,55.034164 72.987778,54.969131 73.019539,54.978188 
	C69.394257,64.165939 68.069481,73.308922 73.744019,82.628006 
	C80.875061,85.613022 84.100792,84.540077 87.505676,78.420708 
	C89.395226,75.024750 94.603348,74.893997 97.818924,78.510498 
	C98.072968,79.642868 98.378113,80.410919 98.086700,81.623802 
	C91.238762,93.327278 81.318176,94.990456 69.330971,91.191605 
	C69.004509,90.944328 69.041428,90.947563 69.041199,90.966095 
	C68.730881,90.732628 68.456467,90.446442 68.066963,89.868324 
	C66.176674,89.119064 65.300407,87.634102 64.251686,86.372810 
	C56.829456,77.446198 57.290512,57.570122 65.099045,49.083088 
	C72.024536,41.555813 86.745148,42.330597 94.786087,50.921665 
	C95.166283,51.319233 95.355682,51.430683 95.747391,51.802399 
	C95.949699,52.062656 95.933739,52.046326 95.922653,52.043579 
	C96.626747,52.954395 97.010925,54.045677 97.532143,55.063190 
	C98.557465,57.064804 99.077408,59.135036 97.442764,61.017044 
	C95.788895,62.921200 93.728081,62.760559 91.201996,61.454697 
z"/>
<path fill="#761F18" opacity="1.000000" stroke="none" 
	d="
M79.751305,105.369614 
	C63.525337,106.478264 46.922131,106.169975 30.318258,105.619377 
	C28.010120,105.542839 27.091160,104.269859 27.107071,102.087746 
	C27.121616,100.092743 27.087790,98.097443 27.085016,96.102257 
	C27.045040,67.338058 27.006712,38.573860 27.088364,9.346451 
	C27.858538,9.387156 28.559921,10.382231 29.150288,10.320229 
	C36.328609,9.566346 35.034298,14.595922 35.035782,18.761551 
	C35.045330,45.574711 35.174450,72.388840 34.954891,99.200119 
	C34.916077,103.940063 36.440090,105.121895 40.917316,105.057320 
	C53.733425,104.872482 66.555664,105.112968 79.751305,105.369614 
z"/>
<path fill="#0549A8" opacity="1.000000" stroke="none" 
	d="
M118.213257,110.330536 
	C119.255501,112.371948 120.607117,113.757729 122.499527,115.072998 
	C125.864960,119.681969 130.958527,122.085251 134.380157,126.693260 
	C119.727951,127.133629 104.908463,127.250748 89.636215,127.425186 
	C88.955421,127.404572 88.727379,127.326614 88.230774,127.009125 
	C86.886421,125.213760 86.550797,123.431351 86.645058,121.612930 
	C86.825851,118.125328 85.473824,115.581726 82.101456,113.730606 
	C81.719414,113.257919 81.587029,113.050583 81.315239,112.497696 
	C80.967125,111.153328 81.011658,110.142326 81.065025,108.749199 
	C81.174202,108.120026 81.248711,107.874222 81.569534,107.332161 
	C92.120087,106.955933 102.424324,106.875954 113.285416,106.834290 
	C115.210831,107.967636 116.579399,109.062675 118.213257,110.330536 
z"/>
<path fill="#49575F" opacity="1.000000" stroke="none" 
	d="
M73.949890,82.541039 
	C72.821358,82.614128 71.956032,81.874062 71.278030,80.880135 
	C67.737427,75.689667 68.391289,60.300583 72.710068,55.100029 
	C72.655540,58.429852 72.706642,62.000191 71.767014,65.287338 
	C70.039017,71.332542 71.785332,76.725464 73.949890,82.541039 
z"/>
<path fill="#415269" opacity="1.000000" stroke="none" 
	d="
M69.240585,91.233353 
	C71.271172,91.297401 73.533401,91.682434 75.805283,91.997948 
	C85.170959,93.298637 92.167091,89.822273 96.948792,81.259468 
	C98.337555,80.725166 98.761177,81.485153 99.068779,82.788239 
	C94.715302,87.384392 91.302155,92.712593 84.237144,93.548767 
	C78.991531,94.169601 74.144821,94.076256 69.240585,91.233353 
z"/>
<path fill="#495153" opacity="1.000000" stroke="none" 
	d="
M90.859177,61.572273 
	C97.538368,60.281067 97.769943,59.912678 95.969131,52.436073 
	C97.617165,52.971100 98.514595,54.680752 99.134018,56.285534 
	C100.008766,58.551750 102.574974,61.702179 99.821129,63.284035 
	C97.370155,64.691917 93.460709,65.284760 90.859177,61.572273 
z"/>
<path fill="#7A3863" opacity="1.000000" stroke="none" 
	d="
M81.467949,111.497665 
	C81.512039,112.041557 81.586090,112.290077 81.777573,112.909439 
	C83.244316,114.115860 84.165382,115.284561 84.165977,116.899246 
	C84.167198,120.253014 85.286736,123.372116 85.935974,127.018143 
	C82.331268,130.809372 81.296280,130.782333 77.375122,126.769691 
	C80.077171,125.292747 81.097511,123.385117 80.936089,120.532845 
	C80.675598,115.929985 80.640297,111.314369 80.570297,106.262741 
	C80.934624,106.110847 81.238548,106.400375 81.679161,106.862900 
	C81.755943,107.236252 81.696030,107.436600 81.542236,107.936249 
	C81.540131,109.223206 81.485474,110.213310 81.467949,111.497665 
z"/>
<path fill="#425A69" opacity="1.000000" stroke="none" 
	d="
M75.119240,53.934929 
	C78.824554,50.856266 83.172813,51.402031 86.802689,55.751518 
	C83.488922,53.422626 79.466331,54.105827 75.119240,53.934929 
z"/>
<path fill="#515251" opacity="1.000000" stroke="none" 
	d="
M99.391006,82.939743 
	C98.577530,82.558037 98.047653,81.983932 97.325302,81.190521 
	C97.286743,80.429146 97.440666,79.887077 97.739304,79.101288 
	C100.927895,79.027740 101.726074,80.231659 99.391006,82.939743 
z"/>
<path fill="#761F18" opacity="1.000000" stroke="none" 
	d="
M27.357376,6.863864 
	C27.116426,6.302344 27.022184,5.495059 27.046211,4.293329 
	C27.806242,4.739276 27.755695,5.666131 27.357376,6.863864 
z"/>
<path fill="#495153" opacity="1.000000" stroke="none" 
	d="
M95.827515,51.877472 
	C95.695694,51.918655 95.467422,51.741508 95.120880,51.369499 
	C95.270699,51.292595 95.513512,51.454094 95.827515,51.877472 
z"/>
<path fill="#415269" opacity="1.000000" stroke="none" 
	d="
M68.011398,89.907951 
	C68.178795,89.907875 68.441376,90.205154 68.872467,90.743530 
	C68.729507,90.724846 68.418053,90.465080 68.011398,89.907951 
z"/>
<path fill="#425A69" opacity="1.000000" stroke="none" 
	d="
M73.256393,54.928299 
	C73.252563,54.754475 73.528900,54.474785 74.078773,54.069622 
	C74.080391,54.236908 73.808479,54.529671 73.256393,54.928299 
z"/>
<path fill="#0549A8" opacity="1.000000" stroke="none" 
	d="
M196.438828,127.032623 
	C198.768433,122.481102 203.521423,119.758720 206.290939,115.215233 
	C207.746933,112.826630 209.306244,110.542191 210.199493,107.478668 
	C210.617950,107.034317 210.953720,106.950294 211.525360,106.761902 
	C222.030151,106.692047 232.299057,106.726578 242.995895,106.736511 
	C244.268509,106.725395 245.113220,106.738853 246.591431,106.763336 
	C247.414261,106.616707 247.603561,106.459053 248.103394,106.501686 
	C248.764313,107.117180 249.114716,107.532394 249.639465,108.156281 
	C254.277161,113.861916 259.369263,118.683884 265.196686,122.720345 
	C266.506836,123.627831 268.251282,124.243019 267.666809,126.722839 
	C243.970093,127.070717 220.437149,127.093811 196.438828,127.032623 
z"/>
<path fill="#070403" opacity="1.000000" stroke="none" 
	d="
M308.943359,32.323959 
	C312.689850,35.800598 314.065948,40.151932 314.853607,44.485119 
	C317.693329,60.107342 318.117249,75.694237 312.507233,91.276009 
	C311.737427,91.413391 311.296204,91.113205 310.770844,90.313797 
	C308.766174,81.919601 309.732056,73.771278 309.719574,65.670013 
	C309.714233,62.188240 309.528107,58.712311 309.573425,55.231342 
	C309.608917,52.505928 308.837524,50.219738 305.728058,49.740189 
	C302.694550,49.272346 300.566437,50.616608 299.439270,53.431461 
	C297.590332,58.048801 295.864197,62.712212 294.233917,67.413597 
	C293.489960,69.558960 292.927582,71.990036 289.759949,72.595337 
	C286.378784,70.790596 286.170013,67.387436 284.860260,64.624519 
	C283.243896,61.214764 282.748322,57.256401 279.602081,54.213577 
	C279.229523,53.748096 279.107086,53.545826 278.819824,53.037369 
	C278.341888,52.128922 278.039978,51.520462 277.463348,50.684486 
	C276.391754,49.293945 275.032837,48.722359 273.956512,47.293285 
	C273.723419,46.694801 273.667389,46.437843 273.582581,45.779888 
	C275.080200,36.697029 281.089935,31.939259 288.703644,29.233847 
	C295.600006,26.783339 302.697113,26.070013 308.943359,32.323959 
z"/>
<path fill="#050101" opacity="1.000000" stroke="none" 
	d="
M311.544861,88.751648 
	C311.892426,89.602997 311.998627,90.166870 312.189362,91.152718 
	C306.066986,106.661674 288.806976,111.598015 275.635864,101.695724 
	C273.349274,97.828217 270.338226,94.653397 270.710541,89.708138 
	C271.637390,87.131378 274.660431,87.723991 275.718445,85.292755 
	C277.246124,80.863922 276.425385,76.558136 277.264984,72.075745 
	C278.504974,71.042038 279.543701,71.328300 280.954285,71.752701 
	C282.287292,72.412682 282.869934,73.234055 283.323792,74.592850 
	C283.614685,75.357018 283.792511,75.779610 284.131470,76.485405 
	C284.529266,77.344933 284.648041,77.951141 284.824768,78.835663 
	C284.948486,79.470039 285.000641,79.828575 285.109436,80.450867 
	C285.230896,80.891785 285.282776,81.070770 285.429810,81.512604 
	C285.689728,82.107803 285.880219,82.424706 286.320435,82.940498 
	C287.157776,83.986725 287.844421,84.725014 289.201111,85.128983 
	C291.948486,87.153465 293.330872,85.978348 294.361420,83.622711 
	C295.793091,80.350121 296.312683,76.733383 298.298889,73.653648 
	C299.052734,72.484810 299.565582,71.339088 301.542603,71.807465 
	C303.529663,73.530739 303.427979,75.638069 303.329773,77.566139 
	C303.079468,82.480492 304.597626,86.015030 309.815735,87.180908 
	C310.466919,87.326408 310.847626,87.985802 311.544861,88.751648 
z"/>
<path fill="#73201B" opacity="1.000000" stroke="none" 
	d="
M345.030457,105.647156 
	C344.818939,105.868881 344.577026,106.199051 344.463928,106.369629 
	C344.192230,106.838623 344.033630,107.137062 343.468384,107.739120 
	C339.465027,109.329643 335.884583,110.187950 332.219238,107.175201 
	C346.357819,79.775276 346.125458,52.534340 333.702637,24.676498 
	C340.574768,28.899786 343.507324,36.140236 346.335327,43.380753 
	C347.969055,47.563580 348.800995,51.996479 349.539337,56.814682 
	C351.340851,57.705978 351.958282,59.027328 352.065308,60.578846 
	C352.643097,68.955803 352.698914,77.335655 352.021393,85.711372 
	C351.938599,86.734764 351.441742,87.582008 350.227509,88.500351 
	C348.452911,93.726562 347.134369,98.725349 345.865601,104.087738 
	C345.807526,104.856659 345.588715,105.185257 345.030457,105.647156 
z"/>
<path fill="#72201A" opacity="1.000000" stroke="none" 
	d="
M309.282043,32.190109 
	C303.098663,30.547352 296.891510,29.232882 290.342010,31.211636 
	C282.903687,33.458942 278.364960,38.615150 275.086121,45.681618 
	C272.761139,47.907318 270.092499,48.102222 266.966309,47.987831 
	C264.739502,46.415047 265.724121,44.465431 265.732666,42.327499 
	C266.646606,38.910038 267.816223,36.095219 269.721405,33.244019 
	C270.897522,32.109512 271.827728,31.212454 272.699982,29.867050 
	C273.061188,29.129171 273.334961,28.702375 273.823181,28.134064 
	C274.775421,27.259077 275.883057,27.116899 276.808472,26.138716 
	C276.999146,25.898821 277.230621,25.803757 277.351471,25.836243 
	C277.913208,25.835987 278.293427,25.666840 278.782135,25.086660 
	C289.468231,19.341915 302.875275,22.458111 309.282043,32.190109 
z"/>
<path fill="#693F78" opacity="1.000000" stroke="none" 
	d="
M331.749329,106.956039 
	C335.410980,106.800957 338.817352,106.889854 342.686401,107.055099 
	C344.958374,108.760468 344.916992,110.746147 343.758575,112.561485 
	C340.100952,118.293236 336.639160,124.284668 329.193542,126.709259 
	C327.910767,127.125618 326.940918,127.312614 325.603088,127.512451 
	C318.795258,126.390060 312.230865,127.920845 305.414551,126.481621 
	C315.338806,122.020058 324.937500,116.712440 331.749329,106.956039 
z"/>
<path fill="#79365A" opacity="1.000000" stroke="none" 
	d="
M267.781799,127.159134 
	C264.888153,123.077003 260.665680,120.813797 257.402618,117.533623 
	C254.722046,114.838989 251.451630,112.665474 249.814697,108.700836 
	C252.440659,110.852798 255.094452,113.312874 257.688782,115.834175 
	C263.321442,121.308342 270.478333,123.885368 277.878357,126.703781 
	C276.556335,127.444977 275.015472,127.909744 273.177246,128.551147 
	C271.273468,128.242065 269.667053,127.756355 267.781799,127.159134 
z"/>
<path fill="#72201A" opacity="1.000000" stroke="none" 
	d="
M265.370117,82.231003 
	C264.937744,82.010452 264.850067,81.641701 264.853638,81.452225 
	C264.245819,77.770950 264.249023,74.213463 263.569763,70.333511 
	C263.377472,66.291069 263.344818,62.626984 263.374054,58.510059 
	C264.257751,56.069714 264.075073,53.912144 264.437927,51.845264 
	C264.751617,50.058388 265.275177,49.081871 267.556946,50.115845 
	C269.048553,60.652298 268.626129,70.861282 267.862854,81.471512 
	C267.074829,82.318459 266.479401,82.510643 265.370117,82.231003 
z"/>
<path fill="#761F18" opacity="1.000000" stroke="none" 
	d="
M272.260315,88.781143 
	C273.383759,93.003258 274.465302,96.816460 275.500305,101.010040 
	C270.774445,98.912277 268.643036,94.568596 266.964233,89.499619 
	C266.602325,88.672142 266.479218,88.158241 266.682037,87.212601 
	C268.016510,85.622414 269.304413,86.045898 270.958893,86.822769 
	C271.737762,87.393272 272.038147,87.842583 272.260315,88.781143 
z"/>
<path fill="#8F1D1B" opacity="1.000000" stroke="none" 
	d="
M266.997040,49.685707 
	C263.725006,51.787048 266.100067,55.493999 263.700409,57.842720 
	C263.109894,52.754608 264.033173,47.619225 265.713135,42.234535 
	C266.164581,43.418880 266.413574,44.926712 266.874176,46.749100 
	C267.653992,47.804489 267.733948,48.598335 266.997040,49.685707 
z"/>
<path fill="#8F1D1B" opacity="1.000000" stroke="none" 
	d="
M263.319550,70.373421 
	C266.298370,73.056267 264.560364,76.844345 264.902954,80.789719 
	C263.424347,77.910797 263.164917,74.376396 263.319550,70.373421 
z"/>
<path fill="#921D12" opacity="1.000000" stroke="none" 
	d="
M272.491089,29.706778 
	C272.790405,31.120996 272.209625,32.302082 270.294434,32.911755 
	C270.247620,31.624802 271.065155,30.629747 272.491089,29.706778 
z"/>
<path fill="#8F1D1B" opacity="1.000000" stroke="none" 
	d="
M264.903564,82.326904 
	C265.314880,82.029510 265.691986,82.048561 266.352173,82.070786 
	C267.628143,82.600006 267.720215,83.474907 267.321350,84.852867 
	C266.802277,85.383568 266.516998,85.510780 265.855530,85.358749 
	C265.276001,84.267456 265.072693,83.455414 264.903564,82.326904 
z"/>
<path fill="#5C0806" opacity="1.000000" stroke="none" 
	d="
M306.997406,3.534163 
	C308.212524,3.117326 309.373169,3.724263 310.699097,4.713094 
	C309.668701,4.574188 308.428894,4.188890 306.997406,3.534163 
z"/>
<path fill="#921D12" opacity="1.000000" stroke="none" 
	d="
M276.693481,25.971958 
	C276.671387,27.075930 275.902771,27.754013 274.366180,27.963655 
	C274.821014,27.343395 275.604401,26.694246 276.693481,25.971958 
z"/>
<path fill="#79365A" opacity="1.000000" stroke="none" 
	d="
M248.420898,106.464363 
	C248.413925,106.701973 248.026382,106.874695 248.026382,106.874695 
	C248.026382,106.874695 247.603119,106.859703 247.414032,106.817032 
	C247.216721,106.372841 247.208481,105.971336 247.361450,105.442047 
	C247.824371,105.618423 248.126114,105.922592 248.420898,106.464363 
z"/>
<path fill="#8F1D1B" opacity="1.000000" stroke="none" 
	d="
M267.225616,86.447319 
	C267.122559,87.275345 267.070801,87.807953 266.968292,88.740227 
	C266.577515,88.350929 266.237518,87.561981 265.897980,86.443726 
	C266.033661,85.966934 266.168854,85.819450 266.604004,85.677155 
	C267.028290,85.838867 267.152618,85.995392 267.225616,86.447319 
z"/>
<path fill="#921D12" opacity="1.000000" stroke="none" 
	d="
M278.660736,24.919064 
	C278.645569,25.077703 278.339905,25.343441 277.753265,25.738955 
	C277.771606,25.587873 278.070923,25.307016 278.660736,24.919064 
z"/>
<path fill="#73201B" opacity="1.000000" stroke="none" 
	d="
M331.962036,22.330141 
	C332.187134,22.262970 332.464142,22.450342 332.791443,22.891638 
	C332.565796,22.958603 332.289856,22.771645 331.962036,22.330141 
z"/>
<path fill="#650B07" opacity="1.000000" stroke="none" 
	d="
M267.315369,5.938477 
	C267.192291,5.611015 267.402130,5.411675 267.941284,5.331898 
	C268.084595,5.673977 267.877197,5.879024 267.315369,5.938477 
z"/>
<path fill="#72201A" opacity="1.000000" stroke="none" 
	d="
M267.036194,85.698860 
	C266.859711,85.984367 266.377960,86.039391 266.138184,86.076904 
	C265.813934,85.948059 265.729401,85.781693 265.562073,85.347412 
	C265.687561,85.058746 265.895813,85.037994 266.416138,84.982971 
	C266.889679,85.103577 267.051178,85.258461 267.036194,85.698860 
z"/>
<path fill="#0449A9" opacity="1.000000" stroke="none" 
	d="
M329.354401,127.027618 
	C332.098877,123.268974 335.304138,119.587799 338.540161,115.933823 
	C340.638702,113.564240 342.157776,110.884735 343.104065,107.492065 
	C343.353149,107.042656 343.557190,106.953865 344.056030,106.702637 
	C358.261017,106.580780 372.171204,106.621353 386.542175,106.569519 
	C387.380859,106.612549 387.758759,106.747986 388.435852,106.919678 
	C391.111206,107.799736 391.116272,109.923157 391.257874,111.866280 
	C391.521545,115.484589 391.540894,119.112503 391.098083,123.214325 
	C390.822021,124.676521 390.430847,125.566116 389.602844,126.795593 
	C369.510132,127.181908 349.669159,127.149261 329.354401,127.027618 
z"/>
<path fill="#0D3B78" opacity="1.000000" stroke="none" 
	d="
M349.880066,89.095123 
	C349.776733,78.510292 349.782013,68.292793 349.736694,57.624649 
	C349.779205,56.350155 349.954468,55.526165 349.953033,54.702492 
	C349.933380,43.470409 348.606659,44.331055 360.969269,44.308331 
	C366.283600,44.298561 371.598755,44.276455 376.911987,44.358601 
	C378.803406,44.387844 381.044769,43.777344 382.138977,46.670036 
	C382.398254,47.278782 382.568176,47.505718 382.944031,48.104557 
	C384.105286,52.436733 381.801178,53.496475 378.115875,53.753487 
	C376.932892,53.962330 376.143341,53.987389 374.973816,53.938667 
	C373.445282,53.576061 372.364136,52.772690 370.715515,53.434307 
	C368.912750,53.324707 367.559570,53.962109 365.783691,53.972839 
	C360.710938,54.340641 360.064026,55.889702 362.527527,62.657928 
	C367.029602,63.160007 370.964874,63.287598 374.900055,63.418507 
	C376.894012,63.484837 378.956543,63.430527 379.724854,66.293777 
	C380.439880,68.531334 380.489441,70.277954 377.999451,71.434792 
	C375.520874,70.860123 374.367340,68.160103 371.340454,68.676254 
	C368.572937,68.550766 365.941315,68.032394 364.951233,71.689056 
	C360.312134,74.501465 359.644592,78.070839 362.874908,83.709274 
	C367.955902,83.934967 372.754089,83.918167 377.550385,84.007027 
	C379.286041,84.039177 381.357513,83.597206 382.062805,86.467896 
	C384.180908,91.687469 383.390930,93.014816 378.350281,93.291458 
	C370.169922,93.740410 362.019379,92.821960 353.386566,92.546875 
	C351.240936,92.083809 350.242462,91.157692 349.880066,89.095123 
z"/>
<path fill="#4C575E" opacity="1.000000" stroke="none" 
	d="
M376.591309,70.559937 
	C378.674408,70.259552 378.744781,68.487869 379.665649,66.897049 
	C383.260101,67.921143 382.015961,70.861755 381.635101,73.004410 
	C381.114136,75.935555 378.648102,73.833916 377.088379,73.976814 
	C374.787292,74.187630 372.451263,74.009720 370.130127,74.010880 
	C361.525146,74.015182 360.808014,74.950264 363.148926,83.507141 
	C359.286743,83.755722 359.857025,80.782631 360.035828,78.490395 
	C360.250458,75.738533 358.330719,71.833504 363.645416,70.977890 
	C365.584106,68.898872 367.746796,68.783791 370.476898,68.971420 
	C372.791962,69.070953 374.769989,68.602005 376.591309,70.559937 
z"/>
<path fill="#515C61" opacity="1.000000" stroke="none" 
	d="
M353.000671,92.636337 
	C360.969330,92.203430 369.015900,92.014091 377.061523,92.047348 
	C380.204315,92.060333 382.231995,91.289871 382.066772,87.283905 
	C386.238251,87.064789 384.853027,90.117699 384.934174,92.371155 
	C385.033508,95.130913 382.994476,94.823784 381.176758,95.004326 
	C372.342804,95.881729 363.567749,92.615334 354.700226,94.610321 
	C354.302765,94.699738 353.625244,93.544441 353.000671,92.636337 
z"/>
<path fill="#4E5354" opacity="1.000000" stroke="none" 
	d="
M382.268127,48.421471 
	C382.105927,47.952271 382.122955,47.770744 382.184143,47.320534 
	C386.814819,47.781185 384.922607,51.314507 384.815582,53.707859 
	C384.680695,56.724186 381.951324,55.835865 380.179260,55.738827 
	C377.906921,55.614391 375.660034,55.024719 373.126007,54.346519 
	C372.944427,53.640217 373.166779,53.304455 373.795898,52.941887 
	C374.795563,52.843166 375.499237,52.842030 376.554321,52.860592 
	C379.911438,53.029121 383.193176,53.544605 382.268127,48.421471 
z"/>
<path fill="#585B57" opacity="1.000000" stroke="none" 
	d="
M364.682068,52.932129 
	C366.750458,52.877018 368.448181,52.856293 370.570312,52.843269 
	C371.107971,53.016335 371.221191,53.181694 371.173706,53.601105 
	C368.263580,54.478004 365.514160,55.100853 362.182037,55.621391 
	C361.231415,53.316765 362.726929,53.094330 364.682068,52.932129 
z"/>
<path fill="#585B57" opacity="1.000000" stroke="none" 
	d="
M362.055237,56.055466 
	C361.489624,58.280231 362.962341,60.147652 363.082275,62.632126 
	C363.094360,63.031040 362.913422,63.020485 362.822784,63.019436 
	C358.759949,61.468872 360.680878,58.556919 361.533569,55.983368 
	C361.959747,55.976273 362.023468,56.028984 362.055237,56.055466 
z"/>
<path fill="#44566D" opacity="1.000000" stroke="none" 
	d="
M371.316406,53.910866 
	C371.008423,53.688084 371.003845,53.521015 370.997009,53.102463 
	C371.815308,52.302803 372.679749,52.179348 373.845184,52.713226 
	C373.827087,53.126289 373.562317,53.408283 373.073700,53.873909 
	C372.439819,54.027222 372.029846,53.996902 371.316406,53.910866 
z"/>
<path fill="#0C0303" opacity="1.000000" stroke="none" 
	d="
M345.005005,105.749084 
	C345.038879,105.475403 345.258850,105.081932 345.697083,104.569893 
	C345.673920,104.843987 345.432495,105.236649 345.005005,105.749084 
z"/>
<path fill="#0C3B7B" opacity="1.000000" stroke="none" 
	d="
M216.927155,90.167686 
	C216.837158,79.252586 216.907425,68.646469 216.953857,57.579659 
	C217.018112,52.985287 214.195679,48.699402 217.987549,44.513321 
	C221.274323,45.286343 225.280945,42.273441 227.193115,47.123405 
	C228.554245,51.514778 227.933594,55.677067 227.973221,59.781384 
	C228.059372,68.699287 228.015747,77.618645 227.994186,86.537331 
	C227.978302,93.105103 227.644455,93.370003 220.305511,92.418915 
	C218.666534,92.047440 217.610840,91.689964 216.927155,90.167686 
z"/>
<path fill="#525B5F" opacity="1.000000" stroke="none" 
	d="
M219.983154,92.569008 
	C227.048035,91.579124 227.026459,91.579109 227.032761,84.323227 
	C227.043106,72.383369 227.084549,60.443539 227.162430,47.994545 
	C229.115631,49.071857 228.996124,51.225594 228.989014,53.416779 
	C228.952377,64.720955 228.980972,76.025330 228.977310,87.329636 
	C228.974930,94.674713 227.395920,95.669746 219.983154,92.569008 
z"/>
<path fill="#1F1816" opacity="1.000000" stroke="none" 
	d="
M218.044113,44.162369 
	C216.135849,48.059052 217.770508,52.254196 217.014679,56.658470 
	C214.985031,51.435120 214.440506,45.346619 211.886734,39.448647 
	C214.429947,39.972969 214.923767,43.343945 218.044113,44.162369 
z"/>
<path fill="#1F1816" opacity="1.000000" stroke="none" 
	d="
M211.593750,38.065956 
	C211.420914,38.079857 211.231674,37.818932 211.016571,37.288647 
	C211.190506,37.271320 211.386047,37.528603 211.593750,38.065956 
z"/>
<path fill="#79365A" opacity="1.000000" stroke="none" 
	d="
M243.422729,106.668396 
	C243.423813,106.711937 243.499741,106.762024 243.537933,106.736458 
	C243.576111,106.710892 243.421661,106.624855 243.422729,106.668396 
z"/>
<path fill="#FA3332" opacity="1.000000" stroke="none" 
	d="
M389.860840,125.452736 
	C388.408478,119.468040 389.369904,113.655190 388.835205,107.420334 
	C388.806458,77.562851 388.879150,48.169781 388.947845,18.776699 
	C388.957520,14.623699 389.001160,10.469666 388.924530,6.318040 
	C388.885681,4.211542 389.271759,2.704220 391.843750,2.799274 
	C399.131226,3.068606 406.440155,2.273163 414.040405,3.541420 
	C417.289886,17.991396 416.205811,32.328968 416.460846,46.601685 
	C416.475311,47.410919 416.445435,48.273487 417.299805,48.960327 
	C419.060730,48.906124 420.248016,47.015701 422.456696,46.928429 
	C433.420563,33.046066 444.067871,19.336981 454.871185,5.330456 
	C455.455902,4.592734 455.477936,3.969980 456.019440,3.380365 
	C456.302887,3.307602 456.352234,3.308793 456.355469,3.283985 
	C460.299622,3.151545 464.240540,3.043913 468.631836,2.810468 
	C469.791473,2.712142 470.500763,2.739629 471.562256,2.717222 
	C473.034790,2.754033 474.155121,2.840738 475.682770,2.803886 
	C476.797668,2.710500 477.505219,2.740671 478.564087,2.719383 
	C481.385925,3.769354 484.430023,1.856854 486.768250,4.518579 
	C485.877472,5.990891 484.893219,7.089221 483.767151,8.471317 
	C483.686249,11.936565 482.091614,14.332123 480.163940,16.706703 
	C470.250580,28.918331 460.699371,41.422737 450.517914,53.417969 
	C448.309937,56.019314 447.853668,58.678684 449.968384,61.538197 
	C451.081512,63.043411 451.481567,64.815346 452.068237,66.882751 
	C452.534241,67.540161 452.790588,67.922325 453.142517,68.645668 
	C453.265320,68.968483 453.407562,69.306938 453.496796,69.467369 
	C458.942322,76.689102 463.366333,84.377785 468.545654,91.975098 
	C468.684296,92.298737 468.864838,92.655296 468.976562,92.820862 
	C468.067291,94.966080 469.836334,96.021591 470.649567,97.279541 
	C475.896423,105.395950 481.192291,113.482040 486.586365,121.501221 
	C488.606018,124.503815 488.996887,126.293976 484.403992,126.046638 
	C475.958496,125.591843 467.434570,127.095612 458.665192,124.911713 
	C458.279083,124.789993 458.261627,124.740334 458.239105,124.726730 
	C457.825897,124.696068 457.535248,124.516769 457.468811,123.928703 
	C450.643250,112.815758 443.693451,101.949432 436.523010,90.818535 
	C435.885986,90.682961 435.585144,90.550209 435.601074,89.944466 
	C435.704651,89.571747 435.606812,89.410400 435.334045,89.026596 
	C434.938507,88.701515 434.717926,88.598892 434.533630,88.133148 
	C434.569885,87.770042 434.456573,87.608818 434.385254,87.540817 
	C432.807281,86.762444 431.194733,86.125847 430.254303,84.681969 
	C428.055420,81.305817 426.038513,82.075943 423.381531,84.368118 
	C418.390564,88.673782 415.342957,93.586266 416.346527,100.458183 
	C416.708313,102.935600 415.876831,105.425407 416.063477,108.332657 
	C416.607758,112.667030 416.384796,116.611298 416.334808,120.554504 
	C416.302124,123.133011 415.654572,125.417000 413.213867,127.397247 
	C407.146790,128.567581 401.497162,129.413528 396.062653,126.440369 
	C394.301392,125.476799 392.153229,126.304840 389.860840,125.452736 
z"/>
<path fill="#731F17" opacity="1.000000" stroke="none" 
	d="
M452.207062,68.223190 
	C443.924255,58.220638 443.942749,58.235371 451.750427,48.431839 
	C462.195862,35.316196 472.609100,22.174915 483.330750,8.899863 
	C485.206543,11.340299 487.676575,10.321730 489.925262,10.379031 
	C491.507080,10.419340 493.609741,9.689292 494.451416,11.486589 
	C495.158020,12.995420 493.510773,14.195583 492.622253,15.313764 
	C480.952209,30.000284 469.219940,44.637360 457.547729,59.322186 
	C455.818542,61.497658 453.504730,63.326302 452.982056,66.668594 
	C453.219940,67.587982 453.085297,68.029495 452.207062,68.223190 
z"/>
<path fill="#701F17" opacity="1.000000" stroke="none" 
	d="
M468.795898,91.933266 
	C466.303925,91.995789 465.690674,89.853882 464.730743,88.246239 
	C461.103210,82.171104 456.310303,76.836334 453.480225,69.978020 
	C455.181366,69.554092 455.946808,70.714310 456.628296,71.828300 
	C460.672180,78.438919 465.693237,84.442291 468.795898,91.933266 
z"/>
<path fill="#701F17" opacity="1.000000" stroke="none" 
	d="
M451.997650,68.349014 
	C452.101288,67.864563 452.364807,67.639626 452.804291,67.223511 
	C453.510803,67.464272 453.923431,67.944962 453.467590,68.834732 
	C452.896057,68.848495 452.526794,68.728508 451.997650,68.349014 
z"/>
<path fill="#290E02" opacity="1.000000" stroke="none" 
	d="
M494.755035,128.898071 
	C494.575562,128.966660 494.327820,128.760727 494.014099,128.277939 
	C494.188751,128.216095 494.434967,128.423584 494.755035,128.898071 
z"/>
<path fill="#290E02" opacity="1.000000" stroke="none" 
	d="
M495.720337,129.916595 
	C495.539246,129.994308 495.296326,129.800735 494.996582,129.331604 
	C495.172699,129.262466 495.412292,129.458893 495.720337,129.916595 
z"/>
<path fill="#772019" opacity="1.000000" stroke="none" 
	d="
M415.386597,107.571289 
	C412.238525,95.341507 415.791718,85.904266 425.688385,78.546509 
	C427.449921,77.236855 428.352417,77.848999 429.299103,79.287445 
	C430.945618,81.789299 432.575775,84.301880 434.263367,87.141388 
	C428.079803,92.100571 421.633698,96.586311 422.048309,106.093117 
	C420.522430,109.679024 418.261475,109.517319 415.386597,107.571289 
z"/>
<path fill="#56417C" opacity="1.000000" stroke="none" 
	d="
M414.972290,107.624825 
	C417.133057,107.000519 419.167664,106.819130 421.600891,106.560715 
	C422.579712,106.780518 423.623260,107.016457 423.671478,107.383209 
	C424.552460,114.087173 426.324310,120.849869 422.535706,127.586655 
	C419.154205,129.078888 416.119354,130.426239 413.386230,126.584076 
	C415.357483,122.101753 414.340302,117.748390 414.469116,113.499222 
	C414.524048,111.686584 414.716278,109.878105 414.972290,107.624825 
z"/>
<path fill="#702628" opacity="1.000000" stroke="none" 
	d="
M412.670044,126.127090 
	C415.960846,126.590759 418.663177,127.019516 421.774780,127.617699 
	C422.950165,132.843933 420.733734,134.514435 415.760132,134.201324 
	C410.169128,133.849365 404.534607,134.188370 398.454834,134.308426 
	C397.701477,133.808121 397.139008,133.213318 397.165680,132.646194 
	C397.410309,127.440102 394.205536,126.801125 389.750397,127.215126 
	C389.303925,126.682930 389.256744,126.151314 389.335754,125.419693 
	C397.001770,125.510521 404.541687,125.801353 412.670044,126.127090 
z"/>
<path fill="#701F17" opacity="1.000000" stroke="none" 
	d="
M457.583252,123.908142 
	C457.927643,123.741112 458.141144,123.934128 458.225067,124.487129 
	C457.884369,124.651062 457.669983,124.458092 457.583252,123.908142 
z"/>
<path fill="#772019" opacity="1.000000" stroke="none" 
	d="
M435.744080,89.931137 
	C436.092621,89.751434 436.277588,89.900398 436.329865,90.366974 
	C435.964905,90.603638 435.759369,90.462044 435.744080,89.931137 
z"/>
<path fill="#772019" opacity="1.000000" stroke="none" 
	d="
M434.548981,87.994614 
	C434.890350,87.845879 435.089539,88.043785 435.163269,88.583946 
	C434.825775,88.741737 434.615448,88.546753 434.548981,87.994614 
z"/>
<path fill="#7C2019" opacity="1.000000" stroke="none" 
	d="
M422.652283,46.382523 
	C420.658478,50.215805 418.411743,53.570076 415.630310,56.493328 
	C415.116943,56.384174 414.603546,56.275021 414.090179,56.165863 
	C414.090179,39.035004 414.090179,21.904142 414.228149,4.311276 
	C414.996735,7.461874 414.788086,11.421453 420.436859,11.439962 
	C422.580566,11.446987 421.986328,14.374652 422.047302,16.114954 
	C422.396271,26.076416 421.495697,36.058445 422.652283,46.382523 
z"/>
<path fill="#4F130B" opacity="1.000000" stroke="none" 
	d="
M456.039673,3.423640 
	C456.036804,3.785114 455.770752,4.262631 455.265930,4.886580 
	C455.276917,4.535236 455.526672,4.037460 456.039673,3.423640 
z"/>
<path fill="#79365A" opacity="1.000000" stroke="none" 
	d="
M184.346191,127.254745 
	C186.897827,125.696907 189.813217,126.235443 193.103821,127.141808 
	C193.361862,127.388260 193.246353,127.519989 192.912170,127.800034 
	C190.029114,127.759155 187.315826,128.318069 184.346191,127.254745 
z"/>
<path fill="#732019" opacity="1.000000" stroke="none" 
	d="
M76.899292,126.211815 
	C79.671280,127.090714 81.898575,128.150574 84.717209,127.256165 
	C85.883080,126.142197 86.923019,125.937714 88.441528,126.648346 
	C88.768494,126.923965 88.998886,127.185455 89.091171,127.333984 
	C89.776955,132.625259 87.656639,134.294983 82.383926,134.223801 
	C61.076126,133.936188 39.762192,134.108337 18.450529,134.099304 
	C10.199671,134.095810 10.199677,134.081955 8.166404,126.458778 
	C30.758881,126.129890 53.577827,126.128143 76.899292,126.211815 
z"/>
<path fill="#0D3C7C" opacity="1.000000" stroke="none" 
	d="
M140.170975,90.388992 
	C137.949142,88.571205 137.992416,86.077789 137.998779,83.574783 
	C138.027359,72.340836 138.235245,61.101948 137.959473,49.875130 
	C137.839783,45.002953 139.321289,42.333221 144.662354,42.171360 
	C149.755341,42.254730 154.581528,42.432140 159.835785,42.546921 
	C160.640610,42.494705 161.016693,42.516884 161.646439,42.674004 
	C166.100891,44.606075 170.922531,45.675396 171.999786,51.613647 
	C175.719910,56.917213 173.687241,61.620403 171.227295,66.678055 
	C171.006516,67.041054 170.982880,66.990143 171.010864,66.988007 
	C170.793182,67.208199 170.555267,67.438538 170.156891,67.859665 
	C169.988693,68.042442 169.984772,67.981995 170.014557,67.987518 
	C169.795181,68.208649 169.556122,68.434921 169.149963,68.843826 
	C168.972748,69.015808 168.972992,68.965157 168.997467,68.971657 
	C166.205215,70.409706 166.488571,72.504211 167.963104,75.137016 
	C169.989838,78.582993 171.303268,81.978088 173.296219,85.032516 
	C174.377014,86.688950 175.090714,88.639191 172.979385,90.653564 
	C170.585403,91.027649 168.567062,91.216469 166.203354,90.297058 
	C162.806824,89.273933 162.565384,86.279099 161.197205,84.171745 
	C159.360260,81.342392 158.793549,77.707848 155.542786,75.411453 
	C150.395752,73.008392 149.113922,73.728172 149.007751,78.769089 
	C148.969742,80.573326 149.001419,82.378876 148.999832,84.183830 
	C148.993484,91.384277 148.747147,91.593498 141.115219,90.364288 
	C140.765747,90.140732 140.364685,90.295731 140.170975,90.388992 
z"/>
<path fill="#535C63" opacity="1.000000" stroke="none" 
	d="
M140.797531,90.510010 
	C147.886902,89.771004 147.886108,89.771004 147.895844,82.799332 
	C147.898392,80.976768 147.871017,79.153145 147.924728,77.331993 
	C147.973221,75.688187 147.805054,73.659782 149.897842,73.278908 
	C151.799088,72.932899 154.193634,71.705078 155.392853,74.877914 
	C151.160217,74.126053 149.470230,75.739601 149.926254,79.966942 
	C150.120407,81.766762 149.935638,83.604668 149.980789,85.423836 
	C150.168884,93.000046 149.167130,93.885727 141.645966,92.528580 
	C141.286255,92.463661 141.097610,91.450737 140.797531,90.510010 
z"/>
<path fill="#3A4B5D" opacity="1.000000" stroke="none" 
	d="
M173.219208,90.201859 
	C173.435150,84.228394 169.035812,80.489235 167.120087,75.406372 
	C166.999695,74.702477 167.182938,74.381310 167.769287,74.056198 
	C170.693024,79.049377 173.336411,84.113228 176.023956,89.538048 
	C175.371323,90.663811 174.518143,90.761490 173.219208,90.201859 
z"/>
<path fill="#4F5964" opacity="1.000000" stroke="none" 
	d="
M171.319519,66.871201 
	C171.553772,62.305733 174.234726,57.726089 172.043808,52.384415 
	C176.887054,54.415390 174.983215,58.521049 174.297455,62.103191 
	C173.982986,63.745762 172.555344,65.175232 171.319519,66.871201 
z"/>
<path fill="#4F5A61" opacity="1.000000" stroke="none" 
	d="
M172.427765,89.934921 
	C173.664703,89.925072 174.467773,89.929474 175.669495,89.916451 
	C176.684616,91.048401 178.365433,93.162132 175.569244,92.727531 
	C172.488556,92.248695 169.008224,92.930008 166.028183,90.437866 
	C167.863556,90.070107 169.928741,90.009636 172.427765,89.934921 
z"/>
<path fill="#4F5964" opacity="1.000000" stroke="none" 
	d="
M168.017960,73.609726 
	C167.814377,74.239792 167.579117,74.494064 167.151581,74.924805 
	C165.706360,72.671295 163.768204,70.089958 168.670853,68.960129 
	C168.045135,70.243050 167.825180,71.692131 168.017960,73.609726 
z"/>
<path fill="#060202" opacity="1.000000" stroke="none" 
	d="
M161.757812,42.691475 
	C161.528076,42.763744 161.155365,42.730301 160.523239,42.590576 
	C160.714172,42.518116 161.164490,42.551937 161.757812,42.691475 
z"/>
<path fill="#4F5964" opacity="1.000000" stroke="none" 
	d="
M170.243073,67.958878 
	C170.182236,67.762970 170.375778,67.483505 170.804077,67.094955 
	C170.858368,67.282349 170.677902,67.578835 170.243073,67.958878 
z"/>
<path fill="#4F5964" opacity="1.000000" stroke="none" 
	d="
M169.214127,68.920547 
	C169.167145,68.736214 169.361542,68.456627 169.800140,68.085037 
	C169.848053,68.270454 169.651779,68.547874 169.214127,68.920547 
z"/>
<path fill="#79365A" opacity="1.000000" stroke="none" 
	d="
M207.692474,106.781876 
	C206.600464,107.996254 205.131393,108.119530 203.299393,107.155327 
	C204.427017,106.146515 205.889740,106.057816 207.692474,106.781876 
z"/>
<path fill="#5F407C" opacity="1.000000" stroke="none" 
	d="
M88.833939,126.472610 
	C87.772255,126.993164 86.776024,127.062355 85.401413,127.118561 
	C81.779449,125.457321 81.969238,122.480194 82.033272,119.513252 
	C82.071777,117.729042 81.962929,115.941658 81.907654,113.717987 
	C88.813744,113.206856 88.909622,113.292480 88.945412,120.061386 
	C88.955910,122.047867 88.916115,124.034622 88.833939,126.472610 
z"/>
<path fill="#5F407C" opacity="1.000000" stroke="none" 
	d="
M81.529572,111.443222 
	C81.385521,110.767601 81.333054,109.742165 81.364471,108.476135 
	C81.505959,109.188164 81.563553,110.140793 81.529572,111.443222 
z"/>
<path fill="#123F7A" opacity="1.000000" stroke="none" 
	d="
M282.789703,80.273277 
	C282.822693,79.423538 282.673920,78.856911 282.378906,78.035774 
	C281.857574,77.722954 281.560883,77.541992 281.435486,76.957802 
	C281.282867,75.765244 281.049347,74.834625 280.709198,73.559822 
	C279.577087,71.127632 277.505676,69.774277 276.592590,67.336273 
	C276.462189,67.758842 276.524353,68.422234 276.503601,69.446152 
	C276.564850,71.886360 276.276245,73.996613 277.197571,76.408676 
	C276.966583,80.010612 277.122070,83.239204 276.557312,86.828949 
	C275.022461,88.253937 273.524384,87.964127 271.629578,87.649948 
	C268.442505,86.529182 268.406128,84.117905 268.414673,81.855125 
	C268.449738,72.565186 268.686035,63.283222 268.061462,53.991463 
	C267.635712,47.657566 267.881317,47.641056 274.726013,46.940132 
	C276.879883,46.645859 278.483337,46.714390 279.749390,48.672134 
	C280.473114,49.405491 280.485840,50.060970 280.773651,50.944874 
	C280.899597,51.233093 280.957764,51.440681 280.959839,51.548447 
	C283.699341,58.215397 285.306183,65.207741 288.909485,71.668274 
	C293.372650,65.602150 294.406494,58.195034 297.237762,51.493816 
	C299.315369,46.576294 306.682678,44.740025 310.726440,48.358498 
	C311.948853,49.452343 312.435883,50.730003 312.418793,52.320839 
	C312.290527,64.255150 312.182465,76.189674 311.927124,88.581619 
	C310.454285,89.006927 309.104858,89.100990 307.793793,88.918900 
	C303.832947,88.368805 300.857666,86.948250 301.203918,82.046951 
	C301.437805,78.736153 301.161835,75.389328 301.093353,71.530594 
	C300.081421,70.565559 299.781158,69.731483 299.848328,68.413574 
	C300.039093,67.747009 300.145416,67.397537 300.221680,67.243996 
	C298.674316,73.631615 295.607147,79.288574 293.942047,85.438057 
	C293.114899,88.492767 290.756714,88.233124 288.013245,87.376961 
	C286.069946,86.988144 284.863678,86.320343 284.525818,84.268631 
	C284.181610,83.399231 283.913177,82.825790 283.586273,81.947678 
	C283.546509,81.633705 283.421448,81.210960 283.325500,81.012512 
	C283.022308,80.728172 282.815125,80.642281 282.789703,80.273277 
z"/>
<path fill="#2F396C" opacity="1.000000" stroke="none" 
	d="
M275.117645,46.673241 
	C273.497437,47.484863 273.515839,51.275520 270.284546,49.209057 
	C269.234955,48.537823 268.960266,50.478298 269.093018,51.282463 
	C271.006897,62.876148 268.893829,74.651985 270.883606,86.626755 
	C271.149597,87.207466 271.250214,87.403442 271.128906,87.844261 
	C269.872467,87.706505 268.837891,87.323891 267.488831,86.842010 
	C267.174286,86.742729 267.053467,86.349228 266.956604,86.166794 
	C266.860077,85.809090 266.860443,85.633812 266.794525,85.203613 
	C266.753357,84.226379 266.778503,83.504051 266.719452,82.427841 
	C267.461548,71.674545 266.982971,61.265202 266.761536,50.393448 
	C266.771454,49.213379 266.893005,48.498531 267.050171,47.423672 
	C269.436523,46.746506 271.787292,46.429352 274.538849,46.055752 
	C274.939667,45.999306 275.069427,46.445805 275.117645,46.673241 
z"/>
<path fill="#425162" opacity="1.000000" stroke="none" 
	d="
M289.167053,71.414024 
	C288.892944,73.751526 288.137054,74.488899 287.281067,72.110710 
	C284.955200,65.648705 282.380737,59.259945 280.948181,52.083557 
	C285.041473,57.547466 286.384857,64.587181 289.167053,71.414024 
z"/>
<path fill="#425162" opacity="1.000000" stroke="none" 
	d="
M280.923126,50.891708 
	C280.615448,50.678387 280.331299,50.123684 280.005188,49.259171 
	C280.694916,49.234901 280.916107,49.834053 280.923126,50.891708 
z"/>
<path fill="#50585B" opacity="1.000000" stroke="none" 
	d="
M301.342041,67.594193 
	C301.165680,68.818710 301.108521,69.630135 301.062042,70.722061 
	C298.770599,75.390846 297.171234,80.058411 295.695862,84.765648 
	C294.371063,88.992325 292.022095,90.438103 287.827911,87.550972 
	C290.971863,87.236992 292.509064,85.623680 293.455505,82.361786 
	C295.118164,76.631638 297.451996,71.096222 299.703857,65.178459 
	C301.813629,64.704384 301.366913,66.125748 301.342041,67.594193 
z"/>
<path fill="#4C5964" opacity="1.000000" stroke="none" 
	d="
M276.180908,87.137444 
	C275.863892,83.571037 275.877777,80.238861 275.883850,76.450226 
	C275.082550,73.930359 275.722809,71.772209 275.291443,69.310822 
	C275.124573,66.461594 275.124573,63.975376 275.124573,61.085823 
	C277.555603,62.288033 276.982880,64.282837 278.024719,65.825897 
	C278.538025,67.821320 278.998077,69.485970 278.455444,71.582756 
	C278.132690,76.626602 278.059570,81.318039 277.968994,86.442398 
	C277.567444,87.318581 277.087494,87.484016 276.180908,87.137444 
z"/>
<path fill="#5A5A50" opacity="1.000000" stroke="none" 
	d="
M275.452087,86.934601 
	C276.317932,86.911797 276.785858,86.920372 277.602722,86.902138 
	C277.739136,90.741127 274.584961,88.228813 272.658752,89.171051 
	C271.973907,88.967209 271.645599,88.744370 271.112152,88.305328 
	C270.933655,87.909973 270.960327,87.730820 271.017944,87.281578 
	C272.384033,86.996315 273.719116,86.981148 275.452087,86.934601 
z"/>
<path fill="#091D34" opacity="1.000000" stroke="none" 
	d="
M278.440613,72.077797 
	C278.162903,70.281525 278.119995,68.627884 278.121979,66.560753 
	C279.459686,68.080704 280.145447,70.250916 280.622559,72.855179 
	C279.960205,72.883896 279.317780,72.552170 278.440613,72.077797 
z"/>
<path fill="#091D34" opacity="1.000000" stroke="none" 
	d="
M283.506531,81.968857 
	C283.899750,82.267204 284.252960,82.900711 284.538635,83.748207 
	C284.136292,83.409470 283.801422,82.856743 283.506531,81.968857 
z"/>
<path fill="#091D34" opacity="1.000000" stroke="none" 
	d="
M281.555573,76.922142 
	C281.749390,76.881767 281.933289,77.107635 282.150391,77.577362 
	C281.932007,77.659035 281.719360,77.448082 281.555573,76.922142 
z"/>
<path fill="#091D34" opacity="1.000000" stroke="none" 
	d="
M282.891357,80.103607 
	C282.971436,79.990166 283.153839,80.385918 283.191681,80.599991 
	C282.909149,80.735237 282.769714,80.536232 282.891357,80.103607 
z"/>
<path fill="#033E87" opacity="1.000000" stroke="none" 
	d="
M371.262421,70.497139 
	C368.962067,70.881264 366.933594,70.933693 364.473083,70.949066 
	C363.444977,65.998260 364.261078,65.442276 370.680908,66.799850 
	C371.798096,67.946220 372.069305,68.988434 371.262421,70.497139 
z"/>
<path fill="#043E86" opacity="1.000000" stroke="none" 
	d="
M371.414459,70.885437 
	C370.994080,69.807014 370.997620,68.785187 371.002411,67.377426 
	C373.891205,66.317070 377.151764,64.934578 376.943115,70.502251 
	C375.236755,70.900948 373.537598,70.921494 371.414459,70.885437 
z"/>
<path fill="#44566D" opacity="1.000000" stroke="none" 
	d="
M362.077332,55.682648 
	C360.680481,58.222717 360.654724,60.407848 362.505798,62.765327 
	C362.451233,63.172131 362.058258,63.532261 361.905762,63.449463 
	C357.971863,61.313774 360.281525,57.714043 360.139313,54.815895 
	C360.007538,52.129623 362.221558,51.933907 364.723755,52.738350 
	C364.100128,53.728165 363.147522,54.558594 362.077332,55.682648 
z"/>
<path fill="#44566D" opacity="1.000000" stroke="none" 
	d="
M382.019287,48.486702 
	C383.244720,52.899025 382.516479,53.716946 377.201294,53.085686 
	C378.828949,51.835453 381.986725,52.331593 382.019287,48.486702 
z"/>
<path fill="#010405" opacity="1.000000" stroke="none" 
	d="
M161.993256,53.884972 
	C164.093018,61.878628 161.540787,64.572937 151.618439,64.835007 
	C148.155334,62.500782 146.948898,57.753044 148.488022,53.919388 
	C149.977646,50.209068 153.300400,51.183163 156.138824,51.068130 
	C157.650620,51.006866 159.039825,51.611942 160.657257,52.741791 
	C161.008392,53.038013 161.022415,52.982349 160.993744,52.983543 
	C161.225235,53.240578 161.495148,53.485649 161.993256,53.884972 
z"/>
<path fill="#3E5269" opacity="1.000000" stroke="none" 
	d="
M160.887756,52.689522 
	C157.386276,52.166973 153.356583,50.452824 150.422104,53.712418 
	C147.531342,56.923470 149.147705,60.768150 150.994553,64.558456 
	C148.482849,65.098114 147.241089,63.724449 147.150314,61.109386 
	C147.127380,60.449242 147.007889,59.774258 147.103134,59.131332 
	C147.538269,56.194172 145.517197,51.998787 149.165710,50.677643 
	C152.881531,49.332130 157.302658,49.048214 160.887756,52.689522 
z"/>
<path fill="#3E5269" opacity="1.000000" stroke="none" 
	d="
M162.026260,53.845802 
	C161.880539,53.869312 161.550995,53.686874 161.093246,53.244587 
	C161.257507,53.203110 161.549973,53.421486 162.026260,53.845802 
z"/>
<path fill="#3E5B7B" opacity="1.000000" stroke="none" 
	d="
M301.393250,67.689980 
	C300.918976,67.150940 300.615082,66.294609 300.107117,65.157974 
	C300.243713,63.695145 299.856232,62.151104 301.582397,61.531853 
	C302.401672,63.533703 302.090942,65.452339 301.393250,67.689980 
z"/>
<path fill="#2F396C" opacity="1.000000" stroke="none" 
	d="
M275.095428,69.360680 
	C276.232819,70.915192 275.947876,73.064209 275.906372,75.585648 
	C274.747192,74.032166 275.057343,71.883255 275.095428,69.360680 
z"/>
</svg>